<svg xmlns="http://www.w3.org/2000/svg" xmlns:xlink="http://www.w3.org/1999/xlink" width="500" zoomAndPan="magnify" viewBox="0 0 375 374.999991" height="500" preserveAspectRatio="xMidYMid meet" version="1.0"><defs><clipPath id="f95eaca563"><path d="M 77.269531 175 L 217 175 L 217 199 L 77.269531 199 Z M 77.269531 175 " clip-rule="nonzero"/></clipPath><clipPath id="0a4517da18"><path d="M 135 83.082031 L 297.769531 83.082031 L 297.769531 291.582031 L 135 291.582031 Z M 135 83.082031 " clip-rule="nonzero"/></clipPath></defs><g clip-path="url(#f95eaca563)"><path fill="#ffffff" d="M 77.28125 175.75 L 216.53125 175.75 L 216.53125 198.917969 L 77.28125 198.917969 Z M 77.28125 175.75 " fill-opacity="1" fill-rule="evenodd"/></g><path fill="#ffffff" d="M 184.121094 138.601562 L 224.738281 179.140625 C 229.269531 183.664062 229.269531 191 224.738281 195.523438 L 184.121094 236.066406 L 167.710938 219.683594 L 200.121094 187.332031 L 167.710938 154.980469 Z M 184.121094 138.601562 " fill-opacity="1" fill-rule="evenodd"/><g clip-path="url(#0a4517da18)"><path fill="#ffffff" d="M 135.300781 94.667969 C 135.300781 88.269531 140.496094 83.082031 146.90625 83.082031 L 286.15625 83.082031 C 292.5625 83.082031 297.757812 88.269531 297.757812 94.667969 L 297.757812 280 C 297.757812 286.398438 292.5625 291.582031 286.15625 291.582031 L 146.90625 291.582031 C 140.496094 291.582031 135.300781 286.398438 135.300781 280 L 135.300781 245.25 L 158.511719 245.25 L 158.511719 268.417969 L 274.550781 268.417969 L 274.550781 106.25 L 158.511719 106.25 L 158.511719 129.417969 L 135.300781 129.417969 Z M 135.300781 94.667969 " fill-opacity="1" fill-rule="evenodd"/></g></svg>